<?xml version="1.0" standalone="no"?><!DOCTYPE svg PUBLIC "-//W3C//DTD SVG 1.1//EN" "http://www.w3.org/Graphics/SVG/1.1/DTD/svg11.dtd"><svg t="1637313619868" class="icon" viewBox="0 0 1024 1024" version="1.1" xmlns="http://www.w3.org/2000/svg" p-id="1243" xmlns:xlink="http://www.w3.org/1999/xlink" width="200" height="200"><defs><style type="text/css"></style></defs><path d="M926.72 472.576a38.4 38.4 0 0 0-38.4 38.4v116.224h-156.672l224.768-280.576a38.4 38.4 0 0 0-6.144-54.272L611.328 25.6a37.888 37.888 0 0 0-28.672-7.68 38.4 38.4 0 0 0-25.6 14.848L114.688 614.4a38.4 38.4 0 0 0 6.144 51.2l10.752 8.704-63.488 76.288a38.4 38.4 0 0 0 4.096 54.272l227.84 192.512a38.4 38.4 0 0 0 51.2-4.096l66.048-75.264 16.896 13.824a38.4 38.4 0 0 0 24.576 8.704h6.656a38.4 38.4 0 0 0 26.112-13.824l178.688-222.72h218.112V819.2a38.4 38.4 0 0 0 76.8 0v-307.2a38.4 38.4 0 0 0-38.4-39.424zM360.96 870.4l-39.936 45.568L153.6 771.584l38.912-45.056 127.488 108.032z m94.72-20.992l-239.616-201.728-5.12-4.608-12.288-10.24 395.776-522.752L870.4 328.704z" fill="#1F88D9" p-id="1244"></path></svg>